<mxfile host="app.diagrams.net" modified="2023-09-09T11:06:50.784Z" agent="Mozilla/5.0 (Macintosh; Intel Mac OS X 10.15; rv:109.0) Gecko/20100101 Firefox/116.0" version="21.7.4" etag="-wN-3dGVhi8hMjZKYXjN" type="github">
  <diagram name="Page-1" id="LY_XZoPJsZmkZ_lTAnZB">
    <mxGraphModel>
      <root>
        <mxCell id="0" />
        <mxCell id="1" parent="0" />
      </root>
    </mxGraphModel>
  </diagram>
</mxfile>
